<?xml version="1.0" standalone="no"?>
<!DOCTYPE svg PUBLIC "-//W3C//DTD SVG 20010904//EN"
 "http://www.w3.org/TR/2001/REC-SVG-20010904/DTD/svg10.dtd">
<svg version="1.0" xmlns="http://www.w3.org/2000/svg"
 width="1348.000000pt" height="326.000000pt" viewBox="0 0 1348.000000 326.000000"
 preserveAspectRatio="xMidYMid meet">

<g transform="translate(0.000000,326.000000) scale(0.100000,-0.100000)"
fill="#ffffff" stroke="none">
<path d="M4154 3191 c-153 -70 -221 -241 -151 -383 69 -141 225 -201 364 -139
59 26 136 102 160 159 24 56 21 147 -6 210 -29 65 -104 134 -168 156 -63 21
-148 20 -199 -3z"/>
<path d="M8360 3070 c-189 -99 -247 -133 -252 -151 -5 -13 -62 -469 -128
-1014 -67 -545 -124 -1007 -127 -1027 l-6 -38 241 0 241 0 6 33 c5 29 85 680
85 692 0 9 67 5 99 -6 17 -6 38 -23 45 -38 7 -14 64 -156 126 -316 62 -159
121 -302 131 -316 29 -42 76 -49 318 -49 121 0 221 3 221 6 0 8 -328 792 -346
826 -8 15 -28 43 -44 62 l-30 34 50 37 c35 26 128 135 300 354 l248 316 -231
3 c-255 3 -290 -3 -339 -56 -14 -15 -105 -136 -202 -270 -111 -151 -188 -248
-206 -257 -16 -8 -45 -15 -65 -15 l-36 0 6 43 c9 67 155 1258 155 1268 0 5 -3
9 -7 8 -5 0 -118 -58 -253 -129z"/>
<path d="M2005 2818 c-137 -72 -252 -132 -253 -134 -2 -1 -10 -48 -17 -105 -7
-56 -19 -105 -25 -109 -6 -4 -55 -15 -110 -25 -114 -21 -105 -8 -116 -170 -9
-126 -2 -135 106 -135 42 0 79 -2 81 -5 3 -2 -19 -195 -48 -427 -62 -488 -64
-574 -21 -670 96 -209 345 -279 634 -179 46 15 106 43 134 61 59 38 61 26 -19
190 -54 110 -57 115 -86 114 -16 -1 -51 -10 -76 -20 -85 -33 -136 12 -131 115
1 31 24 227 50 436 l47 380 182 3 182 2 6 33 c7 45 35 269 35 284 0 10 -40 13
-180 13 l-180 0 0 23 c1 12 13 120 29 240 15 119 27 217 27 217 -1 0 -113 -59
-251 -132z"/>
<path d="M12875 2817 l-250 -132 -14 -106 -13 -106 -112 -24 -111 -24 -7 -65
c-4 -36 -10 -89 -13 -117 -6 -47 -4 -55 19 -78 22 -22 33 -25 101 -25 59 0 75
-3 75 -14 0 -8 -22 -196 -50 -418 -57 -456 -61 -552 -28 -649 17 -51 34 -76
82 -125 83 -83 143 -106 292 -112 132 -5 235 17 348 73 119 60 115 44 50 186
-31 68 -61 130 -67 137 -13 16 -56 15 -87 -3 -14 -8 -44 -14 -67 -15 -51 0
-79 23 -88 72 -4 26 42 446 91 821 l7 47 183 0 c144 0 184 3 184 13 0 15 28
239 35 285 l6 32 -179 0 c-98 0 -181 2 -184 5 -2 3 8 105 24 227 15 123 27
228 26 235 -2 7 -104 -41 -253 -120z"/>
<path d="M725 2485 c-159 -35 -288 -116 -371 -231 -53 -74 -76 -127 -98 -221
-20 -90 -20 -162 -1 -238 34 -131 121 -212 302 -280 162 -61 242 -103 264
-138 27 -46 25 -113 -6 -159 -35 -52 -91 -71 -197 -67 -88 4 -113 13 -216 79
-60 38 -122 44 -167 14 -15 -10 -58 -64 -97 -122 l-70 -104 28 -29 c64 -67
182 -124 321 -155 105 -23 309 -15 408 16 235 74 396 238 440 448 28 132 11
248 -50 337 -58 84 -129 130 -315 205 -140 55 -192 89 -214 135 -21 43 -20 61
4 113 29 63 83 85 199 80 76 -3 96 -8 177 -46 105 -49 141 -52 182 -17 42 36
155 193 149 209 -7 17 -132 101 -191 126 -129 57 -337 77 -481 45z"/>
<path d="M5620 2485 c-124 -34 -256 -124 -356 -242 l-52 -61 -4 103 c-2 86 -7
108 -24 132 -38 51 -65 58 -233 58 l-155 0 -148 -1210 c-81 -666 -147 -1220
-145 -1232 2 -20 23 -11 252 110 l250 132 39 325 c22 179 41 327 42 329 2 1
18 -9 36 -23 160 -121 417 -119 610 6 303 195 491 601 475 1018 -7 152 -24
233 -73 336 -43 91 -127 172 -211 204 -76 29 -224 36 -303 15z m10 -377 c19
-13 45 -45 59 -73 25 -48 26 -56 25 -220 0 -156 -3 -177 -28 -260 -52 -171
-136 -295 -237 -350 -83 -45 -204 -39 -295 16 l-31 19 28 212 c28 218 38 257
100 380 67 133 168 251 242 283 48 21 99 18 137 -7z"/>
<path d="M7030 2480 c-357 -77 -621 -369 -696 -769 -23 -123 -21 -305 5 -406
57 -219 189 -369 395 -449 80 -31 83 -31 261 -30 167 0 186 2 270 28 99 30
191 77 275 139 77 57 170 140 170 150 0 17 -125 155 -156 173 -48 26 -111 15
-186 -34 -120 -78 -172 -96 -278 -97 -56 0 -111 6 -133 14 -50 17 -103 64
-127 111 -20 40 -45 162 -37 183 3 8 46 17 117 26 320 37 577 123 705 235 111
97 161 272 119 417 -72 245 -379 380 -704 309z m208 -321 c36 -12 72 -64 72
-103 0 -67 -53 -131 -140 -168 -48 -21 -214 -63 -294 -74 l-49 -7 7 29 c25
105 135 262 211 301 64 34 137 42 193 22z"/>
<path d="M10313 2485 c-149 -27 -322 -102 -446 -193 -305 -225 -477 -613 -437
-985 19 -173 68 -284 164 -375 83 -79 148 -105 271 -110 88 -4 110 -1 171 20
95 33 167 83 257 177 l74 78 6 -85 c7 -90 19 -120 64 -149 23 -15 51 -18 192
-18 l165 0 98 775 c54 426 96 784 95 795 -4 42 -248 86 -472 84 -71 0 -162 -7
-202 -14z m162 -347 c-3 -18 -16 -124 -30 -236 -16 -125 -35 -234 -51 -285
-114 -363 -340 -530 -444 -327 -60 117 -43 377 35 548 57 125 170 244 275 290
45 20 135 40 183 41 37 1 38 1 32 -31z"/>
<path d="M3529 2476 c-105 -28 -223 -128 -309 -261 l-45 -69 -5 124 c-8 194
-18 203 -251 208 l-156 4 -7 -44 c-3 -23 -46 -378 -96 -788 -49 -410 -92 -760
-95 -777 l-6 -33 240 0 239 0 6 38 c3 20 24 190 47 377 35 298 45 353 75 444
40 120 84 198 146 257 81 79 167 100 272 70 32 -10 61 -15 64 -12 3 3 24 104
47 223 31 157 39 220 31 225 -15 10 -102 28 -129 27 -12 0 -43 -6 -68 -13z"/>
<path d="M12070 2474 c-30 -8 -73 -26 -96 -39 -58 -34 -154 -134 -206 -213
l-43 -66 -6 109 c-9 192 -29 208 -261 213 -148 4 -158 3 -158 -15 -1 -10 -45
-378 -98 -818 l-98 -800 235 -3 c145 -1 237 1 241 7 3 6 25 173 49 372 46 387
61 458 121 586 87 186 220 263 380 219 30 -8 58 -12 61 -8 4 4 23 95 43 202
21 107 40 205 42 216 4 17 -1 24 -26 33 -56 19 -123 21 -180 5z"/>
<path d="M4196 2345 c-131 -68 -242 -128 -246 -132 -7 -7 -170 -1321 -170
-1360 0 -10 55 -13 240 -13 132 0 240 2 240 4 0 3 43 361 95 798 52 436 95
801 95 810 0 10 -3 18 -7 18 -5 -1 -116 -57 -247 -125z"/>
</g>
</svg>
